{"title":"Carrie Underwood - Smoke Break (2015.CnW)","uid":12305562,"size":88569702,"categoryP":"video","categoryS":"music_videos","magnet":"?xt=urn:btih:23bd9472b540539493ce243f467c8cac30545bd3&amp;dn=Carrie+Underwood+-+Smoke+Break+%282015.CnW%29&amp;tr=udp%3A%2F%2Ftracker.openbittorrent.com%3A80&amp;tr=udp%3A%2F%2Fopen.demonii.com%3A1337&amp;tr=udp%3A%2F%2Ftracker.coppersurfer.tk%3A6969&amp;tr=udp%3A%2F%2Fexodus.desync.com%3A6969","seeders":7,"leechers":1,"uploader":"MeRaDil","files":1,"time":1440789081,"description":"CARRIE UNDERWOOD - SMOKE BREAK\n\n &lt;a href=&quot;\nhttp://ultraimg.com/images/Carrie-2.png&quot; rel=&quot;nofollow&quot; target=&quot;_NEW&quot;&gt;\nhttp://ultraimg.com/images/Carrie-2.png&lt;/a&gt;\n &lt;a href=&quot;\nhttp://ultraimg.com/images/Carrie-3.png&quot; rel=&quot;nofollow&quot; target=&quot;_NEW&quot;&gt;\nhttp://ultraimg.com/images/Carrie-3.png&lt;/a&gt;\n &lt;a href=&quot;\nhttp://ultraimg.com/images/Carrie-4.png&quot; rel=&quot;nofollow&quot; target=&quot;_NEW&quot;&gt;\nhttp://ultraimg.com/images/Carrie-4.png&lt;/a&gt;\n\n\nGeneral\nCarrie Underwood - Smoke Break\nFormat                                   : MPEG-4\nFormat profile                           : Base Media\nCodec ID                                 : isom\nFile size                                : 84.5 MiB\nDuration                                 : 3mn 36s\nOverall bit rate                         : 3 280 Kbps\nMusicVid name                            : Smoke Break\nAlbum                                    : Storyteller\nPerformer                                : Carrie Underwood\nGenre                                    : Country/Southern Rock\nContentType                              : Music Video\nRecorded date                            : 2015\nRating                                   : ****\nMake                                     : MeRaDil\nArtist url                               : http://carrieunderwoodofficial.com/\nRelease date                             : USA . august 24 . 2015\n &lt;a href=&quot;\nhttps://thepiratebay.se/user/MeRaDil&quot; rel=&quot;nofollow&quot; target=&quot;_NEW&quot;&gt;\nhttps://thepiratebay.se/user/MeRaDil&lt;/a&gt;\n\nVideo\nID                                       : 1\nFormat                                   : AVC\nFormat/Info                              : Advanced Video Codec\nFormat profile                           : &lt;a class=&quot;__cf_email__&quot; href=&quot;/cdn-cgi/l/email-protection&quot; data-cfemail=&quot;8fc7e6e8e7cfc3bba1bf&quot;&gt;[email&amp;#160;protected]&lt;/a&gt;&lt;script data-cfhash='f9e31' type=&quot;text/javascript&quot;&gt;\n/* &lt;![CDATA[ */!function(){try{var t=&quot;currentScript&quot;in document?document.currentScript:function(){for(var t=document.getElementsByTagName(&quot;script&quot;),e=t.length;e--;)if(t[e].getAttribute(&quot;data-cfhash&quot;))return t[e]}();if(t&amp;&amp;t.previousSibling){var e,r,n,i,c=t.previousSibling,a=c.getAttribute(&quot;data-cfemail&quot;);if(a){for(e=&quot;&quot;,r=parseInt(a.substr(0,2),16),n=2;a.length-n;n+=2)i=parseInt(a.substr(n,2),16)^r,e+=String.fromCharCode(i);e=document.createTextNode(e),c.parentNode.replaceChild(e,c)}t.parentNode.removeChild(t);}}catch(u){}}()/* ]]&gt; */&lt;/script&gt;\nFormat settings, CABAC                   : Yes\nFormat settings, ReFrames                : 2 frames\nCodec ID                                 : avc1\nCodec ID/Info                            : Advanced Video Coding\nDuration                                 : 3mn 35s\nBit rate                                 : 3 003 Kbps\nWidth                                    : 1 920 pixels\nHeight                                   : 1 080 pixels\nDisplay aspect ratio                     : 16:9\nFrame rate mode                          : Variable\nFrame rate                               : 23.976 fps\nMinimum frame rate                       : 23.974 fps\nMaximum frame rate                       : 23.981 fps\nColor space                              : YUV\nChroma subsampling                       : 4:2:0\nBit depth                                : 8 bits\nScan type                                : Progressive\nBits/(Pixel*Frame)                       : 0.060\nStream size                              : 77.3 MiB (91%)\n\nAudio\nID                                       : 2\nFormat                                   : AAC\nFormat/Info                              : Advanced Audio Codec\nFormat profile                           : LC\nCodec ID                                 : 40\nDuration                                 : 3mn 36s\nBit rate mode                            : Constant\nBit rate                                 : 256 Kbps\nChannel(s)                               : 2 channels\nChannel positions                        : Front: L R\nSampling rate                            : 44.1 KHz\nCompression mode                         : Lossy\nStream size                              : 6.59 MiB (8%)\n\nCarrie Underwood * Storyteller * Country/Southern Rock * Promo","torrent":{"xt":"urn:btih:23bd9472b540539493ce243f467c8cac30545bd3","amp;dn":"Carrie+Underwood+-+Smoke+Break+%282015.CnW%29","amp;tr":["udp%3A%2F%2Ftracker.openbittorrent.com%3A80","udp%3A%2F%2Fopen.demonii.com%3A1337","udp%3A%2F%2Ftracker.coppersurfer.tk%3A6969","udp%3A%2F%2Fexodus.desync.com%3A6969"],"infoHash":"23bd9472b540539493ce243f467c8cac30545bd3","infoHashBuffer":{"type":"Buffer","data":[35,189,148,114,181,64,83,148,147,206,36,63,70,124,140,172,48,84,91,211]},"announce":[],"urlList":[]}}